<?xml version="1.0" standalone="no"?>
<!DOCTYPE svg PUBLIC "-//W3C//DTD SVG 1.1//EN" "http://www.w3.org/Graphics/SVG/1.1/DTD/svg11.dtd">
<svg xmlns="http://www.w3.org/2000/svg">
<metadata>Copyright (C) 2016 by original authors @ fontello.com</metadata>
<defs>
<font id="fontello" horiz-adv-x="1000" >
<font-face font-family="fontello" font-weight="400" font-stretch="normal" units-per-em="1000" ascent="850" descent="-150" />
<missing-glyph horiz-adv-x="1000" />
<glyph glyph-name="ec-chevron-up" unicode="&#xe800;" d="M962 150l-42-41-420 420-420-420-42 41 462 462 462-462z" horiz-adv-x="1000" />

<glyph glyph-name="ec-cog" unicode="&#xe801;" d="M-48-13m1065 0m-972 30m349 334c0 36 12 66 37 90 25 25 54 37 90 37 36 0 66-12 91-37 24-24 36-54 36-90 0-36-12-66-36-91-25-24-55-36-91-36-36 0-66 12-90 36-25 25-37 56-37 91z m-180-83c8-26 19-52 33-77l-84-102 95-95 103 83c24-13 50-24 77-32l14-132 137 0 14 132c26 8 51 19 77 32l102-83 96 95-84 102c13 25 25 51 33 77l131 15 0 137-131 14c-8 26-20 51-33 76l84 103-96 96-102-84c-26 13-51 25-77 32l-14 132-137 0-14-132c-28-7-53-19-77-32l-103 84-95-96 84-103c-13-25-25-50-33-76l-131-14 0-137 131-15z m784-251" horiz-adv-x="1039" />

<glyph glyph-name="ec-clip" unicode="&#xe802;" d="M667 745l0 70-460 0 0-70-200 0 0-860 859 0 0 860-199 0 0 0z m-567-766l0 596 673 0 0-596-673 0 0 0z m107 460l460 0 0-94-460 0 0 94 0 0z m0-230l460 0 0-94-460 0 0 94 0 0z" horiz-adv-x="882" />

<glyph glyph-name="ec-exit" unicode="&#xe803;" d="M743 225l0 126-309 0 0 124 309 0 0 124 185-187-185-187 0 0 0 0z m-61 63l0-250-310 0 0-187-371 187 0 811 681 0 0-311-62 0 0 249-495 0 247-125 0-561 248 0 0 187 62 0 0 0 0 0z" horiz-adv-x="933" />

<glyph glyph-name="ec-folder-close" unicode="&#xe804;" d="M585 308l-168 0c-22 0-41-18-41-41 0-23 18-42 41-42l168 0 0-167c0-22 18-41 42-41 22 0 41 18 41 41l0 167 168 0c22 0 41 19 41 42 0 22-18 41-41 41l-168 0 0 168c0 22-18 41-41 41-23 0-42-19-42-41l0-168 0 0z m224 375l278 0c92 0 166-74 166-166l0-500c0-92-75-167-166-167l-921 0c-91 0-166 74-166 167l0 458 0 208c0 92 75 167 166 167l473 0 170-167 0 0z" horiz-adv-x="1253" />

<glyph glyph-name="ec-circle-c" unicode="&#xe805;" d="M501-147c-275 0-498 223-498 498 0 274 223 497 498 497 274 0 497-223 497-497 0-275-223-498-497-498z m0 986c-270 0-488-219-488-488 0-270 218-489 488-489 269 0 488 219 488 489 0 269-219 488-488 488z m0-903c-229 0-414 185-414 414 0 229 185 414 414 414 229 0 414-185 414-414 0-229-185-414-414-414z" horiz-adv-x="1000" />

<glyph glyph-name="ec-clock-o" unicode="&#xe806;" d="M500 842c-272 0-493-221-493-493 0-273 221-494 493-494 273 0 494 221 494 494 0 272-221 493-494 493l0 0z m0-921c-236 0-428 191-428 428 0 236 192 427 428 427 236 0 428-191 428-427 0-237-192-428-428-428l0 0z m214 395l-214 0 0 214c0 9-7 16-16 16l-33 0c-9 0-17-7-17-16l0-231 0-33c0-9 8-16 17-16l263 0c9 0 16 7 16 16l0 33c0 9-7 17-16 17l0 0z" horiz-adv-x="1000" />

<glyph glyph-name="ec-home" unicode="&#xe807;" d="M712-137l338 0 0 493-923 0 0-493 354 0 0 302 231 0 0-302z m-712 493l588 494 588-494-1176 0z" horiz-adv-x="1185" />

<glyph glyph-name="ec-goods" unicode="&#xe808;" d="M851-149l-746 0c-58 0-98 51-90 113l86 581c5 40 45 71 89 71l49 0c6 148 110 228 237 228 128 0 232-80 237-228l53 0c44 0 84-31 89-71l86-581c7-62-33-113-90-113l0 0 0 0z m-646 599c0-32 26-59 58-59 33 0 59 27 59 59 0 32-26 59-59 59-32 0-58-27-58-59l0 0 0 0z m271 351c-107 0-194-61-200-185l400 0c-5 124-93 185-200 185l0 0 0 0z m220-292c-33 0-59-27-59-59 0-32 26-59 59-59 32 0 58 27 58 59 0 32-26 59-58 59l0 0 0 0z" horiz-adv-x="960" />

<glyph glyph-name="ec-download" unicode="&#xe809;" d="M411 849l230 0 0-423 207 0-322-370 0 0-323 370 208 0 0 423z m506-652l0-213-782 0 0 213-134 0 0-213 0-134 134 0 782 0 134 0 0 134 0 213-134 0z" horiz-adv-x="1052" />

<glyph glyph-name="ec-internal" unicode="&#xe80a;" d="M1064 115l-38 0 0 270c0 21-18 39-39 39l-386 0 0 154 155 0c21 0 38 17 38 39l0 193c0 21-17 38-38 38l-387 0c-21 0-38-17-38-38l0-193c0-22 17-39 38-39l155 0 0-154-386 0c-22 0-39-18-39-39l0-270-38 0c-22 0-39-18-39-39l0-154c0-22 17-39 39-39l154 0c21 0 39 17 39 39l0 154c0 21-18 39-39 39l-39 0 0 231 348 0 0-231-39 0c-21 0-38-18-38-39l0-154c0-22 17-39 38-39l155 0c21 0 38 17 38 39l0 154c0 21-17 39-38 39l-39 0 0 231 348 0 0-231-39 0c-21 0-39-18-39-39l0-154c0-22 18-39 39-39l154 0c22 0 39 17 39 39l0 154c0 21-17 39-39 39l0 0z" horiz-adv-x="1125" />

<glyph glyph-name="ec-list" unicode="&#xe80b;" d="M215 113l95 0 0 95-95 0 0-95 0 0z m142 0l427 0 0 95-427 0 0-95 0 0z m-142 189l95 0 0 95-95 0 0-95 0 0z m142 0l427 0 0 95-427 0 0-95 0 0z m-142 190l95 0 0 95-95 0 0-95 0 0z m142 95l0-95 427 0 0 95-427 0 0 0z m436-735l-587 0c-112 0-204 92-204 204l0 587c0 113 92 204 204 204l587 0c113 0 204-91 204-204l0-587c0-112-91-204-204-204l0 0z m-587 948c-86 0-157-70-157-157l0-587c0-86 71-156 157-156l587 0c86 0 157 70 157 156l0 587c0 87-71 157-157 157l-587 0 0 0z" horiz-adv-x="1000" />

<glyph glyph-name="ec-folder-open" unicode="&#xe80c;" d="M1016-70c0-39-32-71-71-71l-888 0 125 586c0 39 31 71 70 71l818 0c39 0 70-32 70-71l-124-515 0 0 0 0 0 0 0 0z m-18 639l0 69c0 40-31 71-71 71l-426 0 0 65c0 39-32 71-71 71l-355 0c-39 0-71-32-71-71l0-844 124 568c0 39 32 71 71 71l799 0 0 0z" horiz-adv-x="1144" />

<glyph glyph-name="ec-circle" unicode="&#xe80d;" d="M500-150c276 0 500 224 500 500 0 276-224 500-500 500-276 0-500-224-500-500 0-276 224-500 500-500z" horiz-adv-x="1000" />

<glyph glyph-name="ec-m-cart" unicode="&#xe80e;" d="M0 550c0 166 134 300 300 300l400 0c166 0 300-134 300-300l0-400c0-166-134-300-300-300l-400 0c-166 0-300 134-300 300l0 400z m620-360c-22 0-40-18-40-40 0-22 18-40 40-40 22 0 40 18 40 40 0 22-18 40-40 40z m-220 0c-22 0-40-18-40-40 0-22 18-40 40-40 22 0 40 18 40 40 0 22-18 40-40 40z m-58 281l-58 59-67 0c-24 0-22-44 0-44l53 0 43-45 76-231 290 0 61 261-398 0z" horiz-adv-x="1000" />

<glyph glyph-name="ec-m-depot" unicode="&#xe80f;" d="M700-150l-400 0c-166 0-300 134-300 300l0 400c0 166 134 300 300 300l400 0c166 0 300-134 300-300l0-400c0-166-134-300-300-300z m-352 281l282 0 0 27-282 0 0-27z m0 65l282 0 0 27-282 0 0-27z m0 69l282 0 0 27-282 0 0-27z m0 65l282 0 0 26-282 0 0-26z m144 256c-92 0-173-52-213-129l427 0c-41 77-121 129-214 129z m216-152l-432 0 0-305 35 0 0 268 363 0 0-268 34 0 0 305z" horiz-adv-x="1000" />

<glyph glyph-name="ec-lock" unicode="&#xe810;" d="M599-142l-456 0c-21 0-40 4-57 12-18 7-33 18-46 32-12 14-22 30-29 49-6 18-10 37-10 57l0 303c0 27 10 51 28 70 18 18 40 28 64 28l559 0c25 0 48-10 66-29 17-18 27-42 27-69l0-295c0-22-4-42-11-62-8-19-18-36-31-50-13-14-28-26-45-34-18-8-38-12-59-12l0 0z m-506 480c-6 0-12-2-17-8-5-5-8-11-8-19l0-303c0-11 2-22 6-32 3-9 8-17 15-25 6-7 14-12 23-16 9-5 19-7 31-7l456 0c12 0 22 3 31 7 10 4 18 10 25 18 7 7 12 16 17 27 4 11 6 23 6 36l0 295c0 8-2 14-8 19-5 6-10 8-18 8l-559 0 0 0z m528 278c0 32-6 62-20 90-13 28-30 52-52 73-22 21-47 38-75 50-28 12-57 18-87 18-34 0-66-6-94-18-29-12-54-29-75-50-21-21-38-45-50-73-12-28-18-58-18-90l0-149 66 0 0 168 1 0c6 77 79 137 169 137 89 0 162-60 168-137l1 0 0-166 66 0 0 147 0 0z" horiz-adv-x="750" />

<glyph glyph-name="ec-m-goods" unicode="&#xe811;" d="M700-150l-400 0c-166 0-300 134-300 300l0 400c0 166 134 300 300 300l400 0c166 0 300-134 300-300l0-400c0-166-134-300-300-300z m-29 599c0 14-11 25-26 25l-25 0c-4 66-58 118-124 118-66 0-120-52-124-118l-26 0c-14 0-25-11-25-25l-41-315c0-14 11-26 26-26l380 0c14 0 26 12 26 26l-41 315z m-84-85c-12 0-21 9-21 21 0 12 9 21 21 21 12 0 21-9 21-21 0-12-9-21-21-21z m-91 208c55 0 100-43 104-98l-208 0c4 55 49 98 104 98z m-89-166c12 0 21-9 21-21 0-12-9-21-21-21-12 0-21 9-21 21 0 12 9 21 21 21z" horiz-adv-x="1000" />

<glyph glyph-name="ec-minus-square-o" unicode="&#xe812;" d="M800-150l-600 0c-110 0-200 89-200 200l0 600c0 111 90 200 200 200l600 0c111 0 200-89 200-200l0-600c0-111-89-200-200-200z m133 733c0 111-89 200-200 200l-466 0c-111 0-200-89-200-200l0-466c0-111 89-200 200-200l466 0c111 0 200 89 200 200l0 466z m-720-200l580 0 0-66-580 0 0 66z" horiz-adv-x="1000" />

<glyph glyph-name="ec-info-circle" unicode="&#xe813;" d="M500-150c276 0 500 224 500 500 0 276-224 500-500 500-276 0-500-224-500-500 0-276 224-500 500-500z m-37 747l74 0 0-74-74 0 0 74z m0-140l74 0 0-380-74 0 0 380z" horiz-adv-x="1000" />

<glyph glyph-name="ec-m-merchant" unicode="&#xe814;" d="M0 550c0 166 134 300 300 300l400 0c166 0 300-134 300-300l0-400c0-166-134-300-300-300l-400 0c-166 0-300 134-300 300l0 400z m295-400l410 0 0 32-410 0 0-32z m57 79l0 119-23 0 0-142 344 0 0 142-26 0 0-119-295 0z m367 192c0 1 0 2 0 3l-20 36c-1 0-2 1-2 1l-39 72-10 17-295 0-73-131 1 0c0-27 21-49 48-49 27 0 48 22 48 49l16 0c1-27 22-49 49-49 26 0 48 22 48 49l19 0c0-27 22-49 48-49 27 0 49 22 49 49l16 0c0-27 22-49 48-49 27 0 48 22 49 49l1 0-1 2z" horiz-adv-x="1000" />

<glyph glyph-name="ec-m-staff" unicode="&#xe815;" d="M0 550c0 166 134 300 300 300l400 0c166 0 300-134 300-300l0-400c0-166-134-300-300-300l-400 0c-166 0-300 134-300 300l0 400z m702-207c-30 7-63 10-77 29-2 3-3 12-3 19 0 3 1 5 3 7 20 17 33 47 33 76 1 56-8 103-67 103-36 0-53-18-61-45 6-4 11-8 16-12 14-14 23-33 28-57 3-17 5-37 4-64 0-19-4-40-12-59-7-15-16-29-26-40 2-1 5-2 9-4 10-3 22-6 36-9 33-6 71-14 92-44 6-7 10-16 14-27l14 0c6 0 14 6 14 16l0 88c0 12-11 22-17 23z m-16-209c-1 23-6 79-25 104-28 37-115 25-140 59-3 4-3 15-3 22 0 3 2 6 4 8 21 19 35 53 35 86 0 63-9 115-73 115-66 0-75-53-74-116 0-32 14-66 36-85 2-2 3-5 3-8 0-8 0-18-3-22-25-34-114-21-141-59-18-25-23-81-24-104 0-6 4-11 10-11l385 0c6 0 11 5 10 11z" horiz-adv-x="1000" />

<glyph glyph-name="ec-merchants" unicode="&#xe816;" d="M1194 708l-1068 0c-11 0-20-9-20-20l0-782c0-11-9-20-20-20l1108 0c11 0 20 9 20 20l0 782c0 11-9 20-20 20l0 0z m-544-140c75 0 137-69 137-153 0-85-62-153-137-153-76 0-138 68-138 153 0 84 62 153 138 153l0 0z m214-541l-429 0c-20 0-54 5-47 46 5 27 34 77 88 143 33 40 82 0 82 0 0 0 46-34 92-34 45 0 91 34 91 34 0 0 49 40 83 0 54-66 82-116 87-143 8-41-27-46-47-46l0 0z m-778 681c0 11 9 20 20 20l1048 0c39 0 37 60 0 60l-41 0c-16 0-32 46-48 56-3 3-7 5-12 5l-1008 0c-5 0-10-3-14-6-4-4-6-9-6-14l0-862c0-40 61-40 61 0l0 741 0 0z" horiz-adv-x="1238" />

<glyph glyph-name="ec-pencil" unicode="&#xe817;" d="M283-29l-173 171-110-292 283 121z m558 547l-180 185-519-514 186-193 513 522z m147 141c25 27 0 80 0 80 0 0-47 52-102 92-54 40-96 0-96 0l-93-92 188-187c0 0 79 80 103 107l0 0z" horiz-adv-x="1000" />

<glyph glyph-name="ec-plus" unicode="&#xe818;" d="M458 392l-420 0c-21 0-38-17-38-38l0-8c0-21 17-38 38-38l420 0 0-420c0-21 17-38 38-38l8 0c21 0 38 17 38 38l0 420 420 0c21 0 38 17 38 38l0 8c0 21-17 38-38 38l-420 0 0 420c0 21-17 38-38 38l-8 0c-21 0-38-17-38-38l0-420z" horiz-adv-x="1000" />

<glyph glyph-name="ec-m-notice" unicode="&#xe819;" d="M700-150l-400 0c-166 0-300 134-300 300l0 400c0 166 134 300 300 300l400 0c166 0 300-134 300-300l0-400c0-166-134-300-300-300z m-255 285c9-21 21-22 55-15 34 7 25 32-5 65-30 33-45 80-45 80l-50 0c0 0 36-109 45-130z m-110 305l-60 0 0-120 60 0 0 120z m325 145c-6 0-12-3-18-7l-5-2c-29-23-71-47-120-69-59-26-115-41-153-43l-9-4 0-160 7-2c38 0 92-10 150-30 58-19 108-43 138-65 3-2 7-3 10-3 36 0 65 86 65 193 0 106-29 192-65 192z" horiz-adv-x="1000" />

<glyph glyph-name="ec-print" unicode="&#xe81a;" d="M166 17l-12 0c-42 0-84 0-126 0-20 0-28 8-28 28 0 87 0 175 0 262 0 70 53 124 123 126 15 1 29 0 44 0l0 14c0 111 0 222 0 333 0 45 25 70 70 70 142 0 284 0 426 0 45 0 84-17 116-48 31-30 62-61 93-92 31-32 47-70 47-114 1-50 1-100 1-149l0-13c14 0 27 0 41 0 59-2 109-40 122-96 3-11 4-23 4-34 0-86 0-172 0-259 0-20-8-28-28-28-42 0-84 0-127 0l-12 0c0-33 0-66 0-99 0-15-3-30-13-42-14-18-31-25-53-25-84 0-168 0-252 0-122 0-244 0-365 0-45 0-70 25-70 69 0 32 0 63 0 94 0 1 0 2-1 3l0 0 0 0z m670 583l-13 0c-29 0-58 0-88 0-22 0-40 8-54 26-9 13-12 27-12 43 0 32 0 64 0 97l-417 0 0-415 584 0c0 83 0 166 0 249l0 0 0 0z m0-500l-584 0 0-166 584 0 0 166 0 0 0 0z m125 251c-23-1-42-20-41-43 0-22 18-41 41-41 23 0 42 19 42 42 0 22-19 42-42 42l0 0 0 0z" horiz-adv-x="1095" />

<glyph glyph-name="ec-map" unicode="&#xe81b;" d="M492 849c0 0-271 0-271-218 0-218 271-467 271-467 0 0 270 249 270 467 0 218-270 218-270 218l0 0z m491-456c-4 18-123-8-172-23 0 0-23-61 0-69 28-9 98 23 98 23l0-297c0 0-250-95-270-91-21 4-270 103-295 91-24-11-270-68-270-68l0 297c0 0 114 26 123 45 11 24 8 80-74 46-82-34-123-69-123-69l0-365c0 0 25-61 74-46 49 15 270 92 270 92 0 0 262-88 295-92 33-4 343 85 344 114 3 101 4 393 0 412l0 0z m-684 238c0 10 1 20 3 30 2 7 5 14 8 21 1 2 2 5 3 7 3 7 7 12 11 18 2 3 4 6 6 9 3 4 7 8 11 12 4 4 8 8 13 12 2 2 5 4 7 5 7 6 14 11 23 15 0 0 0 1 0 1 20 10 43 19 68 23 13 2 26 3 39 3l0 0 1 0c13 0 26-1 39-3 7-2 14-4 20-5 6-2 12-3 17-5 6-2 10-4 16-7 6-2 12-5 18-8 3-2 5-4 7-5 37-23 63-56 72-94 2-9 4-19 4-29 0-155-193-374-193-374 0 0-193 218-193 374l0 0z m266 13c0 38-33 68-73 68-41 0-74-30-74-68 0-38 33-69 74-69 40 0 73 31 73 69l0 0z" horiz-adv-x="1000" />

<glyph glyph-name="ec-info" unicode="&#xe81c;" d="M183 611c0 26-17 47-38 47l-102 0c-21 0-38-21-38-47 0-25 17-46 38-46l102 0c21 0 38 21 38 46l0 0 0 0z m0-525c0 25-17 46-38 46l-102 0c-21 0-38-21-38-46 0-26 17-47 38-47l102 0c21 0 38 21 38 47l0 0 0 0z m508 53c-39-18-72-24-118-24-106 0-200 80-200 211 0 137 95 255 240 255 113 0 194-81 194-193 0-98-53-160-122-160-30 0-52 16-55 52l-1 0c-20-34-49-52-83-52-42 0-72 32-72 87 0 82 58 157 150 157 28 0 60-8 76-17l-19-124c-6-40-2-58 16-59 28 0 62 37 62 114 0 87-54 155-153 155-98 0-184-81-184-209 0-112 69-176 164-176 33 0 68 8 93 22l12-39 0 0 0 0z m-57 277c-5 1-12 3-20 3-42 0-76-44-76-96 0-25 11-41 32-41 24 0 49 31 55 70l9 64 0 0 0 0z m267 430l-748 0c-30 0-54-27-54-62l0-94 69 0c28 0 51-26 51-58l0-47c0-32-23-58-51-58l-69 0 0-102 71 0c0 0 39-2 49-37l0-52 0-34c0 0-6-38-49-40 0 0-11 0-32 0l-39 0 0-95 69 0c28 0 51-26 51-58l0-47c0-32-23-58-51-58l-69 0 0-89c0-35 24-63 54-63l748 0c30 0 54 28 54 63l0 869c0 35-24 62-54 62l0 0 0 0z m-19-859c0-33-25-60-55-60l-441 0c-31 0-56 27-56 60l0 723c0 33 25 59 56 59l441 0c30 0 55-26 55-59l0-723 0 0 0 0z m-699 352c0-22-17-40-38-40l-102 0c-21 0-38 18-38 40l0 13c0 22 17 40 38 40l102 0c21 0 38-18 38-40l0-13 0 0 0 0z" horiz-adv-x="960" />

<glyph glyph-name="ec-pic" unicode="&#xe81d;" d="M575 230l-260 286-177-338 0-93 880 0c-112 99-349 313-349 313l-94-168 0 0z m306 215c49 0 89 41 89 91 0 51-40 92-89 92-48 0-88-41-88-92 0-50 40-91 88-91l0 0z m-881 402l0-962 1143 0 0 962-1143 0 0 0z m1086-901l-1025 0 0 836 960 0 0 0 65 0 0-836 0 0z" horiz-adv-x="1143" />

<glyph glyph-name="ec-purchase" unicode="&#xe81e;" d="M161 708l0 0c22 22 58 22 80 0l290-291c22-22 22-58 0-80l0 0c-22-22-58-22-80 0l-290 291c-22 22-22 58 0 80l0 0 0 0z m765-288l-355 0c19-34 14-78-15-108-36-35-94-35-129 0l-108 108-254 0c-35 0-64-29-64-65l0 0c0-35 29-65 64-65l16 0 149-440 132 0 276 0 132 0 149 440 7 0c35 0 65 30 65 65l0 0c0 36-30 65-65 65l0 0 0 0z m-690-171l523 0c18 0 33-15 33-33l0 0c0-18-15-33-33-33l-523 0c-18 0-33 15-33 33l0 0c0 18 15 33 33 33l0 0 0 0z m73-264l380 0c18 0 33-16 33-34l0 0c0-18-15-33-33-33l-380 0c-18 0-33 15-33 33l0 0c0 18 15 34 33 34l0 0 0 0z m-37 130l457 0c18 0 33-15 33-34l0 0c0-18-15-33-33-33l-457 0c-18 0-33 15-33 33l0 0c0 19 15 34 33 34l0 0z m263 735l0-191-95 0 190-190 190 190-95 0 0 191-190 0 0 0z" horiz-adv-x="991" />

<glyph glyph-name="ec-search-list" unicode="&#xe81f;" d="M71 707l215 0c39 0 71 32 71 72 0 39-32 71-71 71l-215 0c-39 0-71-32-71-71 0-40 32-72 71-72l0 0z m643-428c52 0 101 15 143 39l158-159c29-28 75-28 104 0 29 29 29 76 0 105l-158 158c24 42 39 90 39 142 0 158-128 286-286 286-157 0-285-128-285-286 0-157 128-285 285-285l0 0z m0 428c79 0 143-64 143-143 0-79-64-143-143-143-79 0-143 64-143 143 0 79 64 143 143 143l0 0z m357-714l-999 0-1 0c-39 0-71-32-71-72 0-39 32-71 71-71l0 0 0 0 1000 0c40 0 72 32 72 71 0 40-32 72-72 72l0 0z m-1000 286l215 0c39 0 71 32 71 71 0 39-32 71-71 71l-215 0c-39 0-71-32-71-71 0-39 32-71 71-71l0 0z" horiz-adv-x="1143" />

<glyph glyph-name="ec-set-a" unicode="&#xe820;" d="M105 745l790 0 0-164 105 0 0 269-4 0-861 0-135 0 0 0 0-135 0-704 0-135 0 0 236 0 0 0 14 0 0 105-145 0 0 764z m859-457l-63 0c-6 12-15 39-26 58l45 44c14 14 14 36 0 50l-51 51c-14 14-37 14-51 0l-42-45c-19 11-46 19-59 25l0 64c0 20-21 36-41 36l-72 0c-20 0-42-16-42-36l0-64c-12-6-39-14-58-25l-44 45c-14 14-36 14-50 0l-51-51c-14-14-14-37 0-51l45-43c-11-19-19-45-25-58l-64 0c-20 0-36-22-36-41l0-73c0-20 16-41 36-41l64 0c6-13 14-39 25-59l-45-43c-14-14-14-36 0-51l51-50c14-14 37-14 52 0l42 45c19-11 46-20 58-26l0-63c0-20 22-36 42-36l72 0c20 0 41 16 41 36l0 63c13 6 40 15 59 26l43-45c14-14 36-14 51 0l50 51c14 14 14 37 0 51l-45 43c11 19 20 45 26 58l63 0c20 0 36 21 36 41l0 73c0 19-16 41-36 41l0 0z m-324-240c-90 0-163 73-163 162 0 90 73 163 163 163 89 0 162-73 162-163 0-89-73-162-162-162l0 0z" horiz-adv-x="1000" />

<glyph glyph-name="ec-space" unicode="&#xe821;" d="M823-87l0 824-130 113-432-162 0-40 392 132 0-926 262 0 0 59-92 0 0 0z m-703 254l206 41 0 105-206-55 0-91 0 0z m0-315l206 0 0 110-206-15 0-95 0 0z m0 158l206 20 0 104-206-34 0-90 0 0z m0 317l206 56 0 109-206-70 0-95 0 0z m434 270l-116 71-437-158 0-660 57 0 0 628 327 108 0-733 169 0 0 744 0 0z" horiz-adv-x="915" />

<glyph glyph-name="ec-question-circle" unicode="&#xe822;" d="M500-150c276 0 500 224 500 500 0 276-224 500-500 500-276 0-500-224-500-500 0-276 224-500 500-500z m-53 333c0 10-1 17-1 22 0 29 4 54 12 75 6 16 16 31 29 47 10 12 27 29 52 52 25 22 41 40 49 53 7 13 11 28 11 44 0 28-11 53-33 75-22 21-49 32-81 32-30 0-56-10-77-29-20-20-34-50-40-92l-75 9c7 56 27 98 60 128 33 30 77 44 131 44 58 0 104-16 138-47 34-32 51-70 51-115 0-27-6-51-18-73-12-21-35-48-70-80-24-21-39-36-47-47-7-10-12-21-16-34-3-13-5-34-6-64l-69 0z m0-40l73 0 0-73-73 0 0 73z" horiz-adv-x="1000" />

<glyph glyph-name="ec-export" unicode="&#xe823;" d="M411 57l230-1 0 424 207 0-322 369 0 0-323-369 208 0 0-423z m506 140l0-213-782 0 0 213-134 0 0-213 0-134 134 0 782 0 134 0 0 134 0 213-134 0z" horiz-adv-x="1052" />

<glyph glyph-name="ec-times" unicode="&#xe824;" d="M975-32l-382 382 382 382c13 13 20 29 20 47 0 17-7 34-20 46-12 13-29 20-46 20-18 0-34-7-47-20l-382-382-382 382c-13 13-29 20-47 20-17 0-34-7-46-20-13-12-20-29-20-46 0-18 7-34 20-47l382-382-382-382c-13-13-20-29-20-47 0-17 7-34 20-46 12-13 29-20 46-20 18 0 34 7 47 20l382 382 382-382c13-13 29-20 47-20 17 0 34 7 46 20 26 25 26 67 0 93l0 0z" horiz-adv-x="1000" />

<glyph glyph-name="ec-sale" unicode="&#xe825;" d="M924-142l-821 0c-57 0-103 46-103 102l0 479c0 57 46 103 103 103l68 0 291 223c-2 5-2 11-2 17 0 37 30 68 68 68 38 0 68-31 68-68 0-13-3-24-9-34l269-206 68 0c57 0 103-46 103-103l0-479c0-56-46-102-103-102l0 0 0 0z m-374 219l138 0 0 26-109 0 0 195-29 0 0-221 0 0 0 0z m-197 0l24 67 92 0 26-67 33 0-90 221-31 0-85-221 31 0 0 0 0 0z m-204 195c-7-10-10-20-10-31 0-10 3-20 8-28 5-8 13-15 23-20 9-5 23-9 43-14 20-5 33-9 39-11 9-3 16-8 20-13 4-5 6-11 6-18 0-7-2-13-6-19-4-6-11-10-19-14-9-3-19-5-30-5-12 0-23 3-33 7-10 4-18 10-22 17-5 7-8 16-10 28l-27-3c0-15 4-28 12-39 8-12 18-21 32-27 13-6 30-8 50-8 15 0 30 2 42 8 13 6 22 14 29 24 7 11 10 22 10 33 0 12-3 23-9 32-6 9-16 16-29 22-8 4-25 9-48 14-24 6-39 11-44 16-6 5-9 12-9 19 0 10 4 17 12 24 8 6 21 10 39 10 17 0 29-4 38-11 9-7 14-18 15-31l28 2c0 13-4 24-10 34-7 11-17 18-29 24-13 5-27 8-43 8-15 0-29-3-41-8-12-5-21-12-27-22l0 0 0 0z m422 457c-12-10-27-16-43-16-23 0-43 11-55 28l-268-199 616 0-250 187 0 0 0 0z m317-626l-136 0 0 75 122 0 0 26-122 0 0 68 130 0 0 26-159 0 0-221 165 0 0 26 0 0 0 0z m-467 172c4-12 9-28 16-46l23-61-75 0 25 64c5 14 9 29 11 43l0 0 0 0z" horiz-adv-x="1028" />

<glyph glyph-name="ec-upload" unicode="&#xe826;" d="M411 57l230-1 0 424 207 0-322 369 0 0-323-369 208 0 0-423z m506 140l0-213-782 0 0 213-134 0 0-213 0-134 134 0 782 0 134 0 0 134 0 213-134 0z" horiz-adv-x="1052" />

<glyph glyph-name="ec-set-b" unicode="&#xe827;" d="M1073 846l-1003 0c-39 0-70-31-70-69l0-848c0-39 31-70 70-70l1003 0c39 0 70 31 70 70l0 848c0 38-31 69-70 69l0 0z m-450-95l148 0 0-147-148 0 0 147 0 0z m-251 0l148 0 0-147-148 0 0 147 0 0z m-259 0l147 0 0-147-147 0 0 147 0 0z m917-779l-917 0 0 554 917 0 0-554 0 0z m0 632l-147 0 0 147 147 0 0-147 0 0z m-196-427c1-5 1-10-1-17-1-6-2-13-5-19-3-7-6-13-10-18-4-5-8-9-12-11-5-3-9-4-12-4-4 0-7 1-11 2-4 2-9 3-15 4-5 1-11 1-17 0-6 0-12-2-17-4-6-1-11-5-15-9-9-10-15-20-16-32-2-13 0-24 5-35 4-7 3-15-2-23-2-3-6-6-11-9-5-3-10-6-16-9-6-2-12-4-18-6-7-2-12-2-17-2-4 0-7 1-10 4-3 2-5 5-6 8l-1 0c-4 12-11 22-21 31-10 8-21 12-35 12-13 0-24-4-34-12-11-9-18-19-22-30-2-5-5-8-9-10-4-2-8-3-12-3-6 0-11 1-18 3-7 2-13 4-20 7-7 3-13 6-18 10-5 3-9 7-12 11-2 3-3 6-3 9 0 4 1 9 4 15 5 9 6 19 5 30-1 11-6 22-14 31-5 6-12 9-19 11-8 2-15 2-22 2-8 0-16-2-24-5-6-1-11-1-16 1-4 2-8 6-12 11-3 5-7 11-9 18-3 7-5 13-7 20-1 7-2 13-1 18 1 8 5 13 11 16 12 4 22 12 31 22 9 10 13 22 13 35 0 13-4 25-13 34-9 10-19 17-31 22-3 1-6 4-8 8-2 4-4 9-4 13 0 5 1 11 3 17 1 6 3 12 6 17 2 6 5 11 8 16 3 5 7 8 11 10 3 2 6 3 8 3 3-1 6-1 10-3 11-4 23-6 35-4 12 2 23 7 33 16 4 5 7 10 10 17 2 7 3 13 4 20 0 6 0 12 0 17-1 5-1 9-2 11-1 3-1 5-2 8 0 3 0 6 1 8 2 6 6 10 12 14 6 4 12 7 19 10 7 3 14 5 20 6 6 1 12 2 15 2 5 0 9-2 12-5 3-3 5-6 6-10 4-10 11-19 20-27 10-7 21-11 34-11 13 0 25 3 35 11 10 7 17 17 21 28 2 3 4 6 7 9 4 3 7 5 10 5 6 0 11-1 18-2 6-2 12-4 18-6 6-3 11-7 17-11 5-4 9-8 12-13 2-3 2-7 2-10-1-4-2-6-3-8-5-11-6-22-4-34 1-12 7-23 16-32 9-9 20-14 33-15 14-1 26 1 37 6 3 2 7 3 11 3 5-1 8-2 11-5 6-6 11-14 15-24 5-11 8-22 9-33 1-6 0-11-3-15-3-4-6-6-9-7-12-4-21-12-30-22-8-10-12-22-12-35 0-13 3-24 10-34 7-10 16-17 28-21 2-1 5-3 6-4 5-4 7-8 9-13l0 0 0 0z m-263-51c17 0 33 3 48 9 15 7 28 16 39 27 11 11 20 24 27 39 6 15 9 31 9 48 0 17-3 33-9 48-7 15-16 28-27 39-11 11-24 20-39 27-15 6-31 9-48 9-17 0-33-3-48-9-15-7-28-16-39-27-11-11-20-24-27-39-6-15-9-31-9-48 0-17 3-33 9-48 7-15 16-28 27-39 11-11 24-20 39-27 15-6 31-9 48-9l0 0 0 0z" horiz-adv-x="1143" />

<glyph glyph-name="ec-refresh" unicode="&#xe828;" d="M739 72c-60-42-130-64-202-63-9 1-19 1-28 2-4 0-8 1-12 1-7 1-14 2-21 4-5 1-9 2-13 3-7 1-14 3-21 5-4 1-7 2-10 3-8 3-16 6-23 9-2 1-4 2-6 2-8 4-17 9-26 13 0 0-1 1-1 1-29 16-55 36-79 59 0 1 0 1-1 2-7 7-14 15-20 23-2 1-3 3-4 5-48 60-76 135-76 218l80 0c2 0 4 1 5 3 1 2 1 4 0 6l-135 204c-1 1-2 3-4 3-2 0-4-2-5-3l-135-204c-1-2-1-4 0-6 1-2 3-3 5-3l80 0c0-97 30-187 80-261 1-1 2-2 2-3 5-8 11-15 17-22 2-3 4-5 6-8 8-10 17-20 26-29 1-1 2-2 3-3 30-31 64-57 102-77 1-1 2-2 3-2 11-6 22-11 33-16 3-1 5-3 8-4 10-4 20-8 30-11 4-2 9-3 14-5 8-2 17-4 26-7 6-1 12-3 18-4 2 0 5-1 7-1 9-2 17-3 26-4 3 0 6-1 9-1 15-1 30-2 45-2 92 0 182 28 260 83 24 17 30 52 13 77-17 25-51 31-76 13l0 0z m256 287c0 96-29 186-80 259 0 2-1 3-2 4-6 9-13 18-20 26 0 1-1 2-2 3-46 57-104 101-169 129-2 1-4 2-6 3-10 4-21 8-32 12-4 1-8 2-12 3-9 3-18 6-28 8-5 1-11 3-16 4-3 0-5 1-8 1-7 2-14 2-21 3-5 1-10 2-15 2-12 1-24 2-36 2-2 0-5 0-7 0 0 0-1 0-1 0-92 0-182-28-259-83-25-17-31-52-14-77 18-25 52-31 76-13 60 42 129 63 201 63 10 0 20-1 30-2 3 0 6-1 9-1 8-1 17-2 25-4 3 0 7-1 10-2 8-2 16-4 24-6 2-1 4-2 7-3 9-3 17-6 26-9 0-1 1-1 2-2 51-22 96-56 130-98 1-1 1-1 1-1 49-60 78-137 78-221l-80 0c-2 0-4-2-5-3-1-2-1-5 0-6l135-205c1-1 3-2 5-2 2 0 4 1 5 2l134 205c1 1 2 4 0 6-1 1-3 3-5 3l-80 0 0 0 0 0z" horiz-adv-x="1111" />

<glyph glyph-name="ec-square-o" unicode="&#xe829;" d="M800-150l-600 0c-110 0-200 89-200 200l0 600c0 111 90 200 200 200l600 0c111 0 200-89 200-200l0-600c0-111-89-200-200-200l0 0z m133 733c0 111-89 200-200 200l-466 0c-111 0-200-89-200-200l0-466c0-111 89-200 200-200l466 0c111 0 200 89 200 200l0 466 0 0z" horiz-adv-x="1000" />

<glyph glyph-name="ec-stock" unicode="&#xe82a;" d="M478 308l-216 110c-5 2-10 2-15 0l0 0-231-110c-6-2-11-9-11-16l0-299 0 0c0-6 3-12 9-15l223-123 1 0 0 0 0 0 0 0 0 0 0 0 0 0 0 0 1 0 0 0 0 0 0 0 0-1 0 0 0 0 0 0 0 0 1 0 0 0 0 0 0 0 0 0 0 0 0 0 0 0 1 0 0 0 0 0 0 0 0-1 0 0 0 0 0 0 0 0 1 0 0 0 0 0 0 0 0 0 0 0 0 0 0 0 1 0 0 0 0 0 0 0 0 0 0 0 0 0 0 0 0 0 0 0 1 0 0 0 0 0 0 0 0 0 0 0 0 0 1 0 0 0 0 0 0 0 0 0 0 0 0 0 0 0 0 0 1 0 0 0 0-1 0 0 0 0 0 0 0 0 0 0 1 0 0 0 0 0 0 0 0 0 0 0 1 0 0 0 0 0 0 0 0 0 0 1 0 0 0 0 1 0 0 0 0 0 0 0 0 0 0 0 0 0 1 0 0 0 0 0 0 0 0 0 0 0 0 0 0 0 0 0 1 0 0 0 0 0 0 0 0 0 0 0 0 0 0 0 1 0 0 0 0 0 0 0 0 0 0 0 0 0 0 0 0 0 0 0 1 0 0 0 0 0 0 1 0 0 0 0 0 0 0 0 1 0 0 0 0 0 0 0 0 0 0 0 0 0 1 0 0 0 0 0 0 0 0 0 0 1 0 0 0 0 0 0 1 0 0 0 0 0 0 0 0 0 0 0 0 0 0 0 0 0 224 123c5 3 9 9 9 15l0 0 0 299c0 7-5 14-11 16l0 0z m-224 75l49-25-188-97-55 30 194 92 0 0z m-24-484l-190 104 0 260 58-32 0-57 43-21 0 55 89-49 0-260 0 0z m17 290l-86 47 189 98 85-43-188-102 0 0z m727 119l-216 110c-4 2-10 2-14 0l0 0-231-110c-7-2-11-9-11-16l0-299 0 0c0-6 3-12 9-15l223-123 0 0 0 0 0 0 0 0 1 0 0 0 0 0 0 0 0 0 0 0 0 0 0 0 1-1 0 0 0 0 0 0 0 0 0 0 0 0 1 0 0 0 0 0 0 0 0 0 0 0 0 0 0 0 0 0 1 0 0-1 0 0 0 0 0 0 0 0 0 0 0 0 0 0 1 0 0 0 0 0 0 0 0 0 0 0 0 0 0 0 0 0 1 0 0 0 0 0 0 0 0 0 0 0 0 0 0 0 1 0 0 0 0 0 0 0 0 0 0 0 0 0 0 0 0 0 1 0 0 0 0 0 0 0 0 0 0 0 0 0 0-1 1 0 0 0 0 0 0 0 0 0 0 0 0 0 1 0 0 0 0 0 0 0 0 0 0 0 0 0 1 0 0 0 0 1 0 0 0 0 0 0 0 0 1 0 0 0 0 0 0 0 0 0 0 0 0 0 0 0 0 0 1 0 0 0 0 0 0 0 0 0 0 0 0 0 0 0 1 0 0 0 0 0 0 0 0 0 0 0 0 0 0 0 0 0 1 0 0 0 0 0 0 0 0 0 0 0 0 0 0 0 0 0 1 1 0 0 0 0 0 0 0 0 0 0 0 0 0 0 0 0 1 0 0 0 0 0 0 0 0 0 0 0 0 0 1 0 0 1 0 0 0 0 0 0 0 0 0 0 0 0 1 0 0 0 0 0 0 0 0 0 0 0 223 123c6 3 9 9 9 15l0 0 0 299c0 7-4 14-11 16l0 0z m-223 75l48-25-187-97-55 30 194 92 0 0z m-25-484l-190 104 0 260 58-32 0-57 43-21 0 55 89-49 0-260 0 0z m18 290l-86 47 189 98 84-43-187-102 0 0z m-13 548l-216 110c-4 2-10 2-15 0l0 0-230-110c-7-2-11-9-11-16l0-299 0 0c0-6 3-12 9-15l223-123 0 0 0 0 0 0 0 0 1 0 0 0 0 0 0 0 0 0 0 0 0 0 0 0 0-1 1 0 0 0 0 0 0 0 0 0 0 0 0 0 1 0 0 0 0 0 0 0 0 0 0 0 0 0 0 0 0 0 1-1 0 0 0 0 0 0 0 0 0 0 0 0 0 0 0 0 1 0 0 0 0 0 0 0 0 0 0 0 0 0 0 0 1 0 0 0 0 0 0 0 0 0 0 0 0 0 0 0 0 0 1 0 0 0 0 0 0 0 0 0 0 0 0 0 0 0 1 0 0 0 0 0 0 0 0 0 0-1 0 0 0 0 1 0 0 0 0 0 0 0 0 0 0 0 0 0 0 0 1 0 0 0 0 0 0 0 0 0 0 0 0 0 1 0 0 0 0 0 0 1 0 0 0 0 0 0 1 0 0 0 0 0 0 0 0 0 0 0 0 0 0 0 1 0 0 0 0 0 0 0 0 0 0 0 0 0 0 0 0 0 1 0 0 0 0 0 0 0 0 0 0 0 0 0 0 0 0 0 1 0 0 0 0 0 0 0 0 0 0 0 0 0 0 0 1 1 0 0 0 0 0 0 0 0 0 0 0 0 0 0 0 0 1 0 0 0 0 0 0 0 0 0 0 0 0 0 0 0 1 1 0 0 0 0 0 0 0 0 0 0 0 0 0 0 1 0 0 0 0 0 0 0 0 0 223 123c6 3 9 9 9 15l0 0 0 299c0 7-4 14-11 16l0 0z m-211 69l48-25-187-97-55 30 194 92 0 0z m-36-484l-191 104 0 260 58-32 0-57 43-21 0 55 90-49 0-260 0 0z m16 296l-86 47 190 98 84-43-188-102 0 0z" horiz-adv-x="990" />

<glyph glyph-name="ec-user" unicode="&#xe82b;" d="M484 363c78 0 141 63 141 140 0 78-63 141-141 141-78 0-141-63-141-141 0-77 63-140 141-140l0 0z m0 468c-265 0-481-216-481-481 0-266 216-482 481-482 265 0 481 216 481 482 0 265-216 481-481 481l0 0z m0-147c98 0 178-80 178-178 0-98-80-178-178-178-98 0-178 79-178 178 0 98 80 178 178 178l0 0z m306-657l-4 9c-46 127-168 211-302 211-134 0-256-84-302-211l-3-7c-10 9-20 19-29 30l8 19c59 125 187 207 326 207 139 0 267-81 326-207l9-20c-9-11-19-21-29-31l0 0z" horiz-adv-x="967" />

<glyph glyph-name="ec-user-circle" unicode="&#xe82c;" d="M501 847c-275 0-498-223-498-498 0-276 223-499 498-499 276 0 499 223 499 499 0 275-223 498-499 498l0 0 0 0 0 0z m-266-752c0 23 1 64 1 81 9 26 38 29 63 40 27 11 56 24 83 35 8 2 16 4 23 6 9 7 18 28 23 38l11 3c-2 13-11 14-14 24-2 15-3 29-5 44 0-1-10 2-11 2-14 9-14 45-16 60 0 7 9 13 6 25-15 74 7 108 42 120 25 10 70 28 113 2l10-10 17-3c9-5 14-21 14-21 5-18 5-20 5-38 0-8-4-41-3-51 1-8 3-9 6-16 6-12 4-28 2-40-2-7-4-16-8-22-4-6-13-6-17-13-5-10-2-24-5-35-4-12-14-13-15-29 5-1 10-1 15-2 5-10 13-31 23-38 7-2 15-4 23-6 26-11 56-24 83-35 24-11 54-14 63-40 0-17 1-58 1-81l-533 0 0 0 0 0 0 0z" horiz-adv-x="1000" />

<glyph glyph-name="ec-arrow-line" unicode="&#xe82d;" d="M0 705l98 0 0 0 554 0 0 0 98 0 0 145-87 0 0 0-566 0 0 0-97 0 0-145z m0-517l300 0 0-338 150 0 0 338 299 0-374 434-375-434z" horiz-adv-x="750" />

<glyph glyph-name="ec-arrow-left" unicode="&#xe82e;" d="M433 813l-406-406c-32-31-32-83 0-114l406-406c32-32 83-32 115 0 31 31 31 83 0 115l-268 267 778 0c45 0 82 36 82 81 0 45-37 81-82 81l-778 0 268 268c16 15 23 36 23 57 0 21-7 41-23 57-32 32-83 32-115 0l0 0z" horiz-adv-x="1143" />

<glyph glyph-name="ec-bind-phone" unicode="&#xe82f;" d="M762 777c0 39-31 71-70 71l-617 0c-39 0-71-32-71-71l0-854c0-40 32-72 71-72l617 0c39 0 70 32 70 72l0 854 0 0z m-373-886c-26 0-48 21-48 47 0 27 22 48 48 48 26 0 47-21 47-48 0-26-21-47-47-47l0 0z m326 152l-663 0 0 725c0 13 22 32 35 32l615 0c13 0 13-19 13-32l0-725 0 0z m-86 604c46-46 46-121 0-167l-134-135c-46-46-121-46-167 0-6 6-11 12-15 19l34 35c4-7 8-14 14-20 28-28 73-28 101 0l134 134c27 28 27 73 0 101-28 27-73 27-101 0l-50-51-34 34 51 50c46 46 121 46 167 0l0 0z m-285-385l34-34-50-50c-47-46-121-46-168 0-46 46-46 121 0 167l134 135c46 46 121 46 168 0 5-6 10-12 15-19l-35-35c-4 7-8 14-14 20-28 28-73 28-100 0l-134-134c-28-28-28-73 0-101 28-27 72-27 100 0l50 51 0 0z" horiz-adv-x="765" />

<glyph glyph-name="ec-arrow-right" unicode="&#xe830;" d="M710 813l406-406c32-31 32-83 0-114l-406-406c-32-32-83-32-115 0-31 31-31 83 0 115l268 267-779 0c-44 0-81 36-81 81 0 45 37 81 81 81l779 0-268 268c-16 15-24 36-24 57 0 21 8 41 24 57 32 32 83 32 115 0l0 0z" horiz-adv-x="1143" />

<glyph glyph-name="ec-calendar" unicode="&#xe831;" d="M922 757l-49 0 0 15c0 43-35 78-78 78l-1 0c-43 0-78-35-78-78l0-15-432 0 0 15c0 43-35 78-78 78l-1 0c-43 0-78-35-78-78l0-15-49 0c-43 0-78-35-78-78l0-751c0-43 35-78 78-78l844 0c43 0 78 35 78 78l0 751c0 43-35 78-78 78l0 0z m-175 15c0 26 21 47 47 47l1 0c26 0 47-21 47-47l0-140c0-26-21-47-47-47l-1 0c-26 0-47 21-47 47l0 140 0 0z m-589 0c0 26 21 47 47 47l1 0c26 0 47-21 47-47l0-140c0-26-21-47-47-47l-1 0c-26 0-47 21-47 47l0 140 0 0z m764-859l-844 0c-8 0-15 7-15 15l0 552 875 0 0-552c0-8-8-15-16-15l0 0z m-745 455l145 0 0-71-145 0 0 71 0 0z m252 0l143 0 0-71-143 0 0 71 0 0z m251 0l140 0 0-71-140 0 0 71 0 0z m-503-144l145 0 0-70-145 0 0 70 0 0z m252 0l143 0 0-70-143 0 0 70 0 0z m251 0l140 0 0-70-140 0 0 70 0 0z m-503-141l145 0 0-73-145 0 0 73 0 0z m252 0l143 0 0-73-143 0 0 73 0 0z m251 0l140 0 0-73-140 0 0 73 0 0z" horiz-adv-x="1000" />

<glyph glyph-name="ec-caret-up" unicode="&#xe832;" d="M0-150l727 1000 10 0 726-1000-1463 0z" horiz-adv-x="1464" />

<glyph glyph-name="ec-times-circle" unicode="&#xe833;" d="M500-150c-276 0-500 224-500 500 0 276 224 500 500 500 276 0 500-224 500-500 0-276-224-500-500-500z m244 766c-11 11-29 10-40-1l-209-225-206 222c-10 11-28 12-40 1-11-10-12-28-1-40l208-224-204-219c-11-11-10-29 1-40 12-11 30-10 40 1l202 216 205-221c11-12 29-12 40-1 12 10 13 28 2 40l-208 224 212 227c10 11 10 29-2 40z" horiz-adv-x="1000" />

<glyph glyph-name="ec-chart" unicode="&#xe834;" d="M325 261l0-411 195 0 0 411-97 81-98-81 0 0z m-325-411l195 0 0 315-195-153 0-162 0 0z m975 508l0-508 195 0 0 669-195-161 0 0z m-325-201l0-307 195 0 0 403-154-129-41 33 0 0z m650 693l-374 0 155-145-398-323-260 218-423-331 0-145 423 331 268-218 479 387 130-121 0 347 0 0z" horiz-adv-x="1300" />

<glyph glyph-name="ec-check" unicode="&#xe835;" d="M1321 830c-26 26-68 26-94 0l-824-818-287 286c-27 26-69 26-95 0-26-26-26-69 0-95l335-332c13-13 30-20 47-20 17 0 34 7 47 20l871 865c27 26 27 68 0 94l0 0z" horiz-adv-x="1342" />

<glyph glyph-name="ec-check-circle" unicode="&#xe836;" d="M500-150c-276 0-500 224-500 500 0 276 224 500 500 500 276 0 500-224 500-500 0-276-224-500-500-500z m297 698c-10 8-25 8-33-2l-316-348-241 176c-11 8-25 5-33-5-8-11-5-25 5-33l258-189c11-7 25-5 33 5 0 1 0 1 0 1 1 1 1 1 1 1l327 361c9 9 8 24-1 33z" horiz-adv-x="1000" />

<glyph glyph-name="ec-chevron-down" unicode="&#xe837;" d="M962 552l-462-462-462 462 42 41 420-420 420 420 42-41z" horiz-adv-x="1000" />

<glyph glyph-name="ec-check-square" unicode="&#xe838;" d="M807-150l-607 0c-110 0-200 89-200 200l0 607c0 110 90 200 200 200l607 0c110 0 200-90 200-200l0-607c0-111-90-200-200-200z m48 688c-9 9-24 9-33-1l-364-377-251 173c-10 7-25 5-32-6-8-11-5-25 6-33l269-185c10-7 25-4 32 6 1 2 2 4 3 5l371 385c9 9 8 24-1 33z" horiz-adv-x="1000" />

<glyph glyph-name="ec-warning" unicode="&#xe839;" d="M500-150c276 0 500 224 500 500 0 276-224 500-500 500-276 0-500-224-500-500 0-276 224-500 500-500z m-62 813l125 0-21-464-84 0-20 464z m20-521l84 0 0-84-84 0 0 84z" horiz-adv-x="1000" />

<glyph glyph-name="ec-chevron-right" unicode="&#xe83a;" d="M14-64l418 414-415 420c-19 18-19 48 0 67l0 0c18 18 48 18 67-5l443-443c6-7 13-15 14-19 7-17 4-39-10-56l-450-450c-18-14-49-14-67 5-19 18-19 48 0 67l0 0z" horiz-adv-x="545" />

<glyph glyph-name="ec-chevron-left" unicode="&#xe83b;" d="M531-64l-419 414 416 420c18 18 18 48 0 67l0 0c-19 18-49 18-67-5l-443-443c-6-7-13-15-14-19-8-17-4-39 10-56l450-450c18-14 48-14 67 5 18 18 18 48 0 67l0 0z" horiz-adv-x="545" />

<glyph glyph-name="ec-import" unicode="&#xe83c;" d="M411 849l230 0 0-423 207 0-322-370 0 0-323 370 208 0 0 423z m506-652l0-213-782 0 0 213-134 0 0-213 0-134 134 0 782 0 134 0 0 134 0 213-134 0z" horiz-adv-x="1052" />

<glyph glyph-name="ec-folder-o" unicode="&#xe83d;" d="M1068-30l0 668c0 81-73 74-73 74 0 0-441-1-418 0-25-1-38 13-38 13 0 0-17 30-49 78-33 50-71 42-71 42l-325 0c-90 0-91-87-91-87l0-783c0-97 73-85 73-85l925 0c78 0 67 80 67 80l0 0z m-66 40c0-30-24-54-54-54l-825 0c-30 0-54 24-54 54l0 559c0 30 24 54 54 54l825 0c30 0 54-24 54-54l0-559 0 0z" horiz-adv-x="1071" />

<glyph glyph-name="ec-angle-double-left" unicode="&#xe83e;" d="M364 319c-1 1-1 1-2 2l-7 9c-15 19-15 49 1 68l348 436c15 19 40 19 55 0l7-9c15-19 15-49-1-68l-314-393 314-394c16-19 16-49 1-68l-7-9c-15-19-40-18-55 1l-340 425 0 0z m-343 0c-1 1-1 1-2 2l-7 9c-15 19-15 49 1 68l348 436c15 19 40 19 55 0l7-9c15-19 15-49-1-68l-314-393 314-394c16-19 16-49 1-68l-7-9c-15-19-40-18-55 1l-340 425 0 0z" horiz-adv-x="778" />

<glyph glyph-name="ec-caret-right" unicode="&#xe83f;" d="M687 335l-375-327 0 655 375-328z" horiz-adv-x="1000" />

<glyph glyph-name="ec-angle-double-right" unicode="&#xe840;" d="M414 319c1 1 1 1 2 2l7 9c15 19 15 49-1 68l-348 436c-15 19-40 19-55 0l-7-9c-15-19-15-49 1-68l314-393-315-394c-15-19-15-49 0-68l7-9c15-19 40-18 55 1l340 425 0 0z m343 0c1 1 1 1 2 2l7 9c15 19 15 49-1 68l-348 436c-15 19-40 19-55 0l-7-9c-15-19-15-49 1-68l314-393-314-394c-16-19-16-49-1-68l7-9c15-19 40-18 55 1l340 425 0 0z" horiz-adv-x="778" />

<glyph glyph-name="ec-favorite" unicode="&#xe98c;" d="M500 850c-276 0-500-224-500-500 0-276 224-500 500-500 276 0 500 224 500 500 0 276-224 500-500 500l0 0z m348-439c-1-1-4-6-4-6-41-42-81-82-124-126-3-3-7-5-12-5-16 1-22 20-12 30 79 77 78 76 106 104l11 10-17 3c-60 9-120 18-188 28l0 0 0 0c-6 1-12 4-15 10-39 85-60 122-91 185-32-59-60-120-90-181-3-5-7-10-13-13-3-1-6-1-11-2-85-14-111-18-197-30 47-46 95-92 142-139 7-7 12-15 10-26-11-70-21-128-32-199 58 28 116 59 173 90 3 2 14 9 27 4 2-1 3-2 4-2 114-59 30-15 166-86l11-6-3 12c-25 100-47 190-74 306 0 1 0 2 0 3 0 10 8 17 17 17 8 0 15-5 17-12 27-109 52-219 79-329 1-3 2-6 2-10 0-15-13-27-28-27-5 0-9 1-13 3l0 0c-13 7-113 58-186 96-1 1-2 1-2 1-1 0-2-1-2-1-68-39-124-68-184-97l0 0c-5-2-9-4-14-4-16 0-28 13-28 28l0 2 0 0c14 85 22 139 35 210 0 1 1 1 0 2 0 1 0 1-1 1l0 0-15 16c-45 44-90 89-135 133-5 5-8 12-8 19 0 15 11 26 25 28 69 10 137 20 206 30 1 0 2 1 3 2l10 20c0 0 0 0 0 0 27 55 57 111 84 169 4 10 14 16 24 16 11 0 21-6 25-15l0 0c32-63 62-127 93-190 1-1 2-1 3-1 68-11 138-20 206-31 16-2 29-21 20-40l0 0z m-458-105c0-9-8-17-17-17-5 0-9 1-12 4l-1 1c-21 21-31 32-70 71-2 3-3 8-3 10 0 10 8 17 17 17 5 0 9-2 12-4l0 0c24-25 44-45 69-71l1 0c2-3 4-7 4-11l0 0z" horiz-adv-x="1000" />
</font>
</defs>
</svg>
